<svg width="592" height="388" viewBox="0 0 592 388" fill="none" xmlns="http://www.w3.org/2000/svg">
<g clip-path="url(#clip0_203_1271)">
<path d="M546.207 187.213H66.1606C59.7261 187.213 54.4912 181.978 54.4912 175.543V11.6694C54.4912 5.23485 59.7261 0 66.1606 0H546.207C552.642 0 557.877 5.23485 557.877 11.6694V175.543C557.877 181.978 552.642 187.213 546.207 187.213ZM66.1606 1.39125C60.4934 1.39125 55.8825 6.00214 55.8825 11.6694V175.543C55.8825 181.21 60.4934 185.821 66.1606 185.821H546.207C551.875 185.821 556.485 181.21 556.485 175.543V11.6694C556.485 6.00214 551.875 1.39125 546.207 1.39125H66.1606Z" fill="#3F3D56"/>
<path d="M592 382.981H0V384.152H592V382.981Z" fill="#D9D9D9"/>
<path d="M592 323.157H0V324.328H592V323.157Z" fill="#D9D9D9"/>
<path d="M269.791 193.239C270.216 198.582 273.317 202.693 276.717 202.422C280.117 202.15 282.527 197.6 282.102 192.256C281.961 190.119 281.31 188.047 280.204 186.213L278.117 163.6L267.526 164.805L270.708 186.97C269.906 188.956 269.592 191.106 269.791 193.239Z" fill="#FFB6B6"/>
<path d="M257.139 87.7413C257.139 87.7413 267.039 82.5005 272.059 90.3322C277.079 98.1639 280.544 182.865 280.544 182.865L266.63 184.35L263.992 124.664L257.139 87.7413V87.7413Z" fill="#D9D9D9"/>
<path d="M236.591 318.738L244.652 318.737L248.486 287.647L236.59 287.647L236.591 318.738Z" fill="#FFB6B6"/>
<path d="M264.207 318.555C264.458 318.978 264.591 320.342 264.591 320.834C264.591 322.345 263.366 323.569 261.855 323.569H236.893C235.862 323.569 235.026 322.734 235.026 321.703V320.664C235.026 320.664 233.792 317.54 236.334 313.69C236.334 313.69 239.494 316.705 244.215 311.983L245.608 309.461L255.686 316.832L261.273 317.52C262.495 317.67 263.579 317.496 264.207 318.555H264.207H264.207Z" fill="#2F2E41"/>
<path d="M283.236 317.404L291.046 315.408L287.066 284.336L275.54 287.281L283.236 317.404Z" fill="#FFB6B6"/>
<path d="M309.948 310.391C310.295 310.739 310.761 312.028 310.883 312.504C311.257 313.968 310.374 315.458 308.91 315.832L284.724 322.01C283.725 322.265 282.709 321.662 282.454 320.664L282.197 319.657C282.197 319.657 280.227 316.936 281.737 312.577C281.737 312.577 285.545 314.715 288.951 308.972L289.676 306.184L301.265 310.831L306.848 310.114C308.07 309.958 309.076 309.521 309.948 310.391H309.948Z" fill="#2F2E41"/>
<path d="M229.923 81.0578L229.541 78.2843L234.083 67.1906L246.563 65.8038L249.258 81.686L229.923 81.0578Z" fill="#FFB6B6"/>
<path opacity="0.1" d="M229.923 81.0578L229.541 78.2843L234.083 67.1906L246.563 65.8038L249.258 81.686L229.923 81.0578Z" fill="black"/>
<path d="M215.362 159.408L209.815 174.662L213.976 182.982L234.776 303.627H248.605L245.87 196.849L277.765 303.627H291.452L280.446 231.517L272.218 164.955L267.228 161.872L243.097 148.314L215.362 159.408Z" fill="#2F2E41"/>
<path d="M250.724 169.808L242.403 171.195L231.31 144.847H256.271L250.724 169.808Z" fill="#D9D9D9"/>
<path d="M267.364 162.874L250.724 169.808L245.177 157.328L242.403 171.195L213.282 161.821L217.442 144.847L213.282 89.3781L227.968 79.5877L229.923 78.2843L247.95 79.671L249.531 80.5308L260.431 86.6047L263.204 132.367L267.364 162.874Z" fill="#2F2E41"/>
<path d="M249.531 80.5308L241.71 113.646L227.968 79.5877L229.923 78.2843L247.95 79.671L249.531 80.5308Z" fill="#D9D9D9"/>
<path d="M236.163 78.2843L233.39 83.0608L236.163 84.653L234.776 113.732L240.323 121.273L245.87 110.128L241.71 84.653L243.097 78.2843H236.163Z" fill="#2F2E41"/>
<path d="M240.323 75.5109C247.599 75.5109 253.497 69.6128 253.497 62.337C253.497 55.0613 247.599 49.1631 240.323 49.1631C233.048 49.1631 227.149 55.0613 227.149 62.337C227.149 69.6128 233.048 75.5109 240.323 75.5109Z" fill="#FFB6B6"/>
<path d="M231.904 63.4926L234.751 64.7349L235.993 57.2812C235.993 57.2812 240.962 54.7967 244.689 56.0389C248.416 57.2812 254.627 56.0389 254.627 56.0389C254.627 56.0389 254.627 43.6162 245.931 43.6162C237.235 43.6162 228.539 44.8585 228.539 48.5853C228.539 52.3121 224.812 56.0389 224.812 56.0389C224.812 56.0389 219.843 63.4926 224.812 68.4617C229.782 73.4308 232.266 73.4308 232.266 73.4308L231.904 63.4926Z" fill="#2F2E41"/>
<path d="M206.342 192.849C206.198 198.207 208.845 202.624 212.254 202.715C215.664 202.806 218.544 198.538 218.687 193.179C218.774 191.039 218.347 188.909 217.442 186.968L217.768 164.261L207.109 164.336L207.92 186.713C206.911 188.603 206.37 190.707 206.342 192.849V192.849Z" fill="#FFB6B6"/>
<path d="M219.529 86.5786C219.529 86.5786 210.515 83.8052 206.355 92.1255C202.195 100.446 207.742 185.036 207.742 185.036H221.735L218.021 125.407L219.529 86.5786V86.5786Z" fill="#D9D9D9"/>
<path d="M565.304 244.17L531.69 233.88C530.947 233.652 530.167 233.569 529.392 233.635L359.032 248.134C356.603 248.341 355.993 251.617 358.184 252.684L363.641 255.343H363.496V382.609H368.638V257.777L385.74 266.109C387.049 266.747 388.509 267.007 389.957 266.861L391.777 266.677V382.609H396.919V266.157L528.684 252.848V382.609H533.826V252.328L555.68 250.121V382.609H560.822V249.602L564.809 249.199C567.608 248.916 567.994 244.993 565.304 244.17H565.304Z" fill="#3F3D56"/>
<path d="M408.489 247.63C411.703 247.63 459.266 241.845 459.266 241.845L466.337 251.487L416.845 261.128L408.489 247.63Z" fill="white"/>
<path d="M460.691 377.666L452.427 377.651L448.551 345.77L460.747 345.792L460.691 377.666Z" fill="#A0616A"/>
<path d="M432.379 377.43C432.121 377.863 431.983 379.261 431.982 379.765C431.979 381.314 433.233 382.572 434.782 382.575L460.373 382.619C461.43 382.621 462.288 381.765 462.29 380.709L462.292 379.643C462.292 379.643 463.563 376.443 460.964 372.492C460.964 372.492 457.719 375.577 452.887 370.728L451.464 368.139L441.118 375.678L435.389 376.374C434.136 376.526 433.026 376.346 432.379 377.43H432.379L432.379 377.43Z" fill="#2F2E41"/>
<path d="M505.042 362.841L498.522 367.758L476.451 344.951L486.073 337.693L505.042 362.841Z" fill="#A0616A"/>
<path d="M482.594 379.543C482.649 380.038 483.374 381.222 483.674 381.62C484.596 382.842 486.334 383.085 487.556 382.164L507.746 366.933C508.58 366.304 508.746 365.118 508.117 364.284L507.483 363.444C507.483 363.444 506.576 360.164 502.17 358.601C502.17 358.601 501.454 362.967 494.754 362.029L492.089 360.839L488.435 372.95L484.336 376.915C483.439 377.782 482.456 378.303 482.594 379.543L482.594 379.543Z" fill="#2F2E41"/>
<path d="M487.772 198.072C487.772 205.692 481.594 211.87 473.974 211.87C466.353 211.87 460.176 205.692 460.176 198.072C460.176 190.452 466.353 184.274 473.974 184.274C481.594 184.274 487.772 190.452 487.772 198.072Z" fill="#A0616A"/>
<path d="M486.472 277.628C486.472 277.628 435.669 274.753 432.794 280.504C429.918 286.255 448.34 365.254 448.34 365.254L464.775 361.81L456.757 306.385C456.757 306.385 499.151 317.612 504.902 304.192C510.653 290.773 508.998 285.776 508.998 285.776L486.472 277.628Z" fill="#2F2E41"/>
<path d="M499.488 267.974C499.488 267.974 449.734 278.64 448.482 284.947C447.231 291.255 485.894 362.566 485.894 362.566L500.832 354.897L478.439 303.567C478.439 303.567 522.292 303.18 524.289 288.717C526.285 274.254 523.366 269.873 523.366 269.873L499.488 267.974Z" fill="#2F2E41"/>
<path d="M505.164 213.885H481.26L464.905 240.724C464.905 240.724 461.071 258.069 464.905 259.941C468.739 261.812 468.739 281.942 468.739 281.942L508.998 285.776C508.998 285.776 514.749 225.388 512.832 219.637C510.915 213.885 505.164 213.885 505.164 213.885Z" fill="#491B6D"/>
<path d="M467.301 231.618L464.904 259.941L437.951 248.501L431.518 245.266C430.258 243.623 428.623 242.306 426.749 241.424C422.09 239.154 417.145 239.716 415.7 242.68C414.255 245.644 416.86 249.886 421.517 252.155C423.367 253.088 425.412 253.564 427.483 253.544L446.305 264.235L446.328 264.193L446.411 264.342L475.928 276.67L482.719 239.489L467.301 231.618H467.301Z" fill="#A0616A"/>
<path d="M464.425 199.986C464.425 199.986 450.047 201.904 455.798 189.442C455.798 189.442 454.921 182.687 459.194 182.231C463.467 181.774 469.218 174.106 469.218 174.106C469.218 174.106 482.404 167.396 489.23 174.106C496.057 180.816 516.187 220.116 516.187 220.116L502.767 234.494C502.767 234.494 494.699 213.285 485.313 215.742C475.928 218.199 467.301 225.524 467.301 225.524C467.301 225.524 457.776 220.757 462.059 216.602C466.342 212.448 464.425 199.986 464.425 199.986Z" fill="#2F2E41"/>
<path d="M483.596 221.074C483.596 221.074 476.886 212.447 472.094 219.157C467.301 225.867 463.467 234.494 463.467 234.494L482.638 241.204L483.596 221.074H483.596Z" fill="#491B6D"/>
<path d="M556.385 380.701L534.112 309.907L534.115 309.907H534.167L534.077 309.791L534.075 309.788L532.488 304.746L532.489 304.745C534.906 302.663 536.551 299.687 536.879 296.261L526.698 240.264C527.398 232.911 521.761 226.483 514.376 226.22L491.404 226.162C484.874 225.931 479.217 230.648 478.266 237.115L477.758 240.547L470.72 288.426C470.463 290.148 470.566 291.845 470.971 293.433L465.906 294.095L464.37 294.301L458.296 295.091L458.277 295.098L457.518 295.194H456.695V315.762H456.747V381.503C456.747 381.927 457.094 382.275 457.518 382.275C457.949 382.275 458.296 381.927 458.296 381.503V315.762H467.307L476.299 381.426C476.357 381.812 476.685 382.094 477.071 382.094C477.103 382.094 477.141 382.095 477.174 382.088C477.598 382.03 477.893 381.638 477.836 381.214L468.876 315.762H512.114C516.407 315.762 520.385 314.4 523.624 312.067L540.768 381.306C540.857 381.656 541.172 381.889 541.518 381.889C541.581 381.889 541.645 381.881 541.709 381.865C542.123 381.76 542.374 381.338 542.269 380.924L524.959 311.016C525.19 310.824 525.42 310.619 525.637 310.408L532.519 310.003L554.908 381.166C555.012 381.496 555.317 381.708 555.647 381.708C555.723 381.708 555.802 381.696 555.879 381.672C556.287 381.543 556.514 381.109 556.385 380.701ZM531.017 305.844C531.075 305.812 531.126 305.774 531.178 305.742L531.178 305.741L531.344 306.267L531.017 305.844Z" fill="#D9D9D9"/>
<path d="M119.345 260.702L134.335 251.17L140.429 254.846L119.345 279.073V260.702Z" fill="#FFB6B6"/>
<path d="M98.8465 223.805C98.8465 223.805 88.8901 226.148 93.5755 239.618C98.2609 253.089 113.488 281.201 118.174 279.444C122.859 277.687 123.445 260.117 123.445 260.117C123.445 260.117 122.859 260.702 120.516 258.36C118.174 256.017 118.174 257.087 118.174 254.502C118.174 251.917 116.258 250.001 116.258 250.001L114.074 245.475C114.074 245.475 114.074 224.391 105.289 223.219C96.5038 222.048 98.8465 223.805 98.8465 223.805L98.8465 223.805Z" fill="#D9D9D9"/>
<path d="M145.364 254.216C149.252 250.328 150.457 245.229 148.055 242.827C145.654 240.426 140.555 241.631 136.667 245.519C132.779 249.407 131.573 254.506 133.975 256.908C136.376 259.309 141.475 258.104 145.364 254.216Z" fill="#FFB6B6"/>
<path d="M60.0659 301.407L70.2944 318.337L129.902 314.81L114.03 294.353L60.0659 301.407Z" fill="#D9D9D9"/>
<path d="M77.8767 380.59C77.5295 380.59 77.2271 380.334 77.1787 379.98L59.367 249.894C59.3141 249.507 59.5841 249.152 59.9701 249.099C60.3559 249.043 60.7117 249.316 60.7647 249.702L78.5764 379.789C78.6293 380.175 78.3593 380.531 77.9733 380.583C77.9408 380.588 77.9086 380.59 77.8767 380.59Z" fill="#D9D9D9"/>
<path d="M60.0658 380.755C59.6762 380.755 59.3604 380.439 59.3604 380.05V249.823C59.3604 249.433 59.6762 249.117 60.0658 249.117C60.4553 249.117 60.7712 249.433 60.7712 249.823V380.05C60.7712 380.439 60.4553 380.755 60.0658 380.755Z" fill="#D9D9D9"/>
<path d="M149.477 380.237C149.177 380.237 148.899 380.045 148.804 379.744L106.656 245.777C106.539 245.405 106.745 245.009 107.117 244.892C107.488 244.776 107.885 244.982 108.001 245.353L150.15 379.32C150.267 379.692 150.06 380.088 149.689 380.205C149.618 380.227 149.547 380.237 149.477 380.237Z" fill="#D9D9D9"/>
<path d="M136.603 380.402C136.288 380.402 136.001 380.19 135.92 379.871L106.645 261.636C106.549 261.259 106.777 260.875 107.155 260.779C107.533 260.683 107.916 260.911 108.012 261.288L137.287 379.523C137.383 379.901 137.155 380.285 136.777 380.381C136.719 380.396 136.66 380.402 136.603 380.402H136.603Z" fill="#D9D9D9"/>
<path d="M60.0659 251.897L108.916 251.146L117.91 302.465H60.7713L60.0659 251.897Z" fill="#D9D9D9"/>
<path d="M135.136 327.358L122.825 349.033L137.119 352.18L143.079 336.764L135.136 327.358Z" fill="#FFB6B6"/>
<path d="M127.247 344.941C127.247 344.941 126.769 341.406 123.956 342.528C121.144 343.65 113.027 347.818 113.027 347.818C113.027 347.818 134.198 382.217 138.215 380.615C142.233 379.013 137.424 369.289 137.424 369.289L138.485 352.101L127.247 344.941H127.247Z" fill="#2F2E41"/>
<path d="M80.6908 285.301C80.6908 285.301 76.2982 305.506 89.7687 312.535C103.239 319.563 149.215 302.285 149.215 302.285L128.13 333.877L142.772 339.768C142.772 339.768 176.156 295.843 173.813 288.815C171.47 281.787 155.657 281.201 155.657 281.201L119.931 282.958L110.56 280.03L80.6908 285.301H80.6908Z" fill="#2F2E41"/>
<path d="M116.923 336.978L97.5688 352.687L109.738 360.82L120.898 348.629L116.923 336.978Z" fill="#FFB6B6"/>
<path d="M103.176 350.484C103.176 350.484 104.017 347.018 100.989 347.039C97.9614 347.061 88.8843 347.99 88.8843 347.99C88.8843 347.99 96.086 387.735 100.411 387.704C104.737 387.673 103.795 376.866 103.795 376.866L111.038 361.243L103.176 350.484Z" fill="#2F2E41"/>
<path d="M81.5139 277.992C81.5139 277.992 70.0699 295.214 80.0596 306.662C90.0492 318.11 139.16 318.747 139.16 318.747L108.025 340.5L119.519 351.316C119.519 351.316 166.598 322.549 166.973 315.151C167.349 307.752 152.833 301.452 152.833 301.452L118.916 290.089L111.254 283.951L81.5139 277.992H81.5139Z" fill="#2F2E41"/>
<path d="M110.913 238.101C110.913 238.101 99.7848 234.002 94.5137 234.002C94.0101 234.002 93.5122 234.06 93.0144 234.166C89.6409 234.88 86.5369 237.779 85.0493 239.361C84.4694 239.981 84.1356 240.397 84.1356 240.397C84.1356 240.397 84.1708 239.993 84.241 239.284C84.5866 235.56 85.8633 223.337 88.1533 215.512C88.9733 212.718 89.9162 210.487 90.9997 209.403C93.5239 206.873 94.6894 203.839 95.2282 201.579C95.6851 199.64 95.6851 198.276 95.6851 198.276L91.4155 196.436L90.6248 191.271C90.4843 191.88 89.8342 193.069 87.6497 195.347C87.4622 195.54 87.2572 195.704 87.0405 195.845C83.8896 197.825 77.4648 194.381 74.0034 192.214C75.4442 187.206 78.0563 182.626 82.8003 181.877C93.9281 180.12 93.9281 173.677 100.956 180.705C101.536 181.285 102.122 181.842 102.707 182.38C104.956 186.679 105.776 192.442 106.069 196.448C106.28 199.254 106.227 201.204 106.227 201.204C106.227 201.204 109.156 218.774 113.841 222.288C118.526 225.802 110.913 238.101 110.913 238.101Z" fill="#2F2E41"/>
<path d="M89.2426 209.989L81.3291 221.597L99.1991 226.388V209.989H89.2426Z" fill="#FFB6B6"/>
<path opacity="0.1" d="M89.2426 209.989L81.3291 221.597L99.1991 226.388V209.989H89.2426Z" fill="black"/>
<path d="M100.311 221.169L83.3262 214.141C83.3262 214.141 60.4849 224.098 62.2419 243.425C63.9989 262.752 80.3978 296.136 80.3978 296.136L113.196 282.08L109.682 244.596L100.311 221.169Z" fill="#D9D9D9"/>
<path d="M93.0284 215.171C101.304 215.171 108.013 208.463 108.013 200.187C108.013 191.911 101.304 185.202 93.0284 185.202C84.7527 185.202 78.0439 191.911 78.0439 200.187C78.0439 208.463 84.7527 215.171 93.0284 215.171Z" fill="#FFB6B6"/>
<path d="M113.256 194.761C110.327 197.69 107.984 200.618 107.984 200.618L106.813 195.933C106.813 195.933 106.544 196.132 106.069 196.448C104.213 197.713 99.2286 200.893 95.2285 201.579C93.448 201.883 91.8667 201.69 90.8359 200.618C88.6514 198.34 88.0013 197.151 87.8607 196.542L87.07 201.708L82.8005 203.547C82.8005 203.547 82.8005 209.977 87.4859 214.674C87.7143 214.903 87.9368 215.184 88.1535 215.512C90.3908 218.885 91.9956 227.143 93.0146 234.166C93.9165 240.409 94.3499 245.668 94.3499 245.668C94.3499 245.668 89.9164 240.116 85.0495 239.361C84.78 239.32 84.5106 239.29 84.2412 239.284C84.1534 239.273 84.0597 239.273 83.9718 239.273C78.7007 239.273 67.5729 243.372 67.5729 243.372C67.5729 243.372 59.9592 231.073 64.6446 227.559C69.33 224.045 72.2583 206.475 72.2583 206.475C72.2583 206.475 72.0651 198.955 74.0036 192.214C75.4444 187.206 78.0565 182.626 82.8005 181.877C93.9283 180.12 93.9283 173.677 100.956 180.705C101.536 181.285 102.122 181.842 102.708 182.38C109.255 188.401 115.944 192.073 113.256 194.761Z" fill="#2F2E41"/>
<path d="M47.5347 273.38H41.9697V383.289H47.5347V273.38Z" fill="#3F3D56"/>
<path d="M182.486 273.38H176.921V383.289H182.486V273.38Z" fill="#3F3D56"/>
<path d="M147.009 226.774H110.141V263.642H147.009V226.774Z" fill="#491B6D"/>
<path d="M88.8901 265.974L103.88 256.441L109.974 260.117L88.8901 284.344V265.974Z" fill="#FFB6B6"/>
<path d="M68.3915 229.076C68.3915 229.076 58.435 231.419 63.1204 244.889C67.8058 258.36 83.0333 286.472 87.7187 284.715C92.4041 282.958 92.9898 265.388 92.9898 265.388C92.9898 265.388 92.4041 265.974 90.0614 263.631C87.7187 261.288 87.7187 262.358 87.7187 259.773C87.7187 257.188 85.8026 255.272 85.8026 255.272L83.619 250.746C83.619 250.746 83.619 229.662 74.8339 228.49C66.0488 227.319 68.3915 229.076 68.3915 229.076H68.3915Z" fill="#D9D9D9"/>
<path d="M114.908 259.487C118.797 255.599 120.002 250.5 117.6 248.098C115.199 245.697 110.1 246.902 106.212 250.79C102.323 254.678 101.118 259.777 103.52 262.179C105.921 264.58 111.02 263.375 114.908 259.487Z" fill="#FFB6B6"/>
<path d="M193.616 269.207H25.2749V281.728H193.616V269.207Z" fill="#3F3D56"/>
<path d="M364.649 169.037H339.787C337.816 169.037 336.219 170.634 336.219 172.605V182.859C336.219 184.83 337.816 186.427 339.787 186.427H364.649C366.62 186.427 368.217 184.83 368.217 182.859V172.605C368.217 170.634 366.62 169.037 364.649 169.037Z" fill="#3F3D56"/>
<path d="M416.821 179.29H391.959C389.988 179.29 388.391 180.888 388.391 182.859V182.859C388.391 184.83 389.988 186.427 391.959 186.427H416.821C418.792 186.427 420.389 184.83 420.389 182.859V182.859C420.389 180.888 418.792 179.29 416.821 179.29Z" fill="#491B6D"/>
</g>
<defs>
<clipPath id="clip0_203_1271">
<rect width="296" height="193.852" fill="white" transform="scale(2)"/>
</clipPath>
</defs>
</svg>
